# AST/ASF file generated using VICON BodyLanguage
# -----------------------------------------------
:version 1.10
:name VICON
:units
  mass 1.0
  length 0.45
  angle deg
:documentation
   .ast/.asf automatically generated from VICON data using
   VICON BodyBuilder and BodyLanguage model FoxedUp or BRILLIANT.MOD
:root
   order TX TY TZ RX RY RZ
   axis XYZ
   position 0 0 0  
   orientation 0 0 0 
:bonedata
  begin
     id 1 
     name lhipjoint
     direction 0.440178 -0.822639 0.359871 
     length 2.53113 
     axis 0 0 0  XYZ
  end
  begin
     id 2 
     name lfemur
     direction 0.34202 -0.939693 0  
     length 7.88132  
     axis 0 0 20  XYZ
    dof rx ry rz
    limits (-160.0 20.0)
           (-70.0 70.0)
           (-60.0 70.0)
  end
  begin
     id 3 
     name ltibia
     direction 0.34202 -0.939693 0   
     length 8.43783   
     axis 0 0 20   XYZ
    dof rx
    limits (-10.0 170.0)
  end
  begin
     id 4 
     name lfoot
     direction 0.0886351 -0.243523 0.965837   
     length 2.63414   
     axis -90 7.62852e-016 20   XYZ
    dof rx rz
    limits (-45.0 90.0)
           (-70.0 20.0)
  end
  begin
     id 5 
     name ltoes
     direction 1.53703e-011 -4.21717e-011 1   
     length 1.31427   
     axis -90 7.62852e-016 20   XYZ
    dof rx
    limits (-90.0 20.0)
  end
  begin
     id 6 
     name rhipjoint
     direction -0.399779 -0.839773 0.367367   
     length 2.47948  
     axis 0 0 0  XYZ 
  end
  begin
     id 7 
     name rfemur
     direction -0.34202 -0.939693 0   
     length 7.74806   
     axis 0 0 -20   XYZ
    dof rx ry rz
    limits (-160.0 20.0)
           (-70.0 70.0)
           (-70.0 60.0)
  end
  begin
     id 8 
     name rtibia
     direction -0.34202 -0.939693 0   
     length 8.74432   
     axis 0 0 -20   XYZ
    dof rx
    limits (-10.0 170.0)
 end
 begin
     id 9 
     name rfoot
     direction -0.108514 -0.298139 0.948334   
     length 2.66102  
     axis -90 -7.62852e-016 -20   XYZ
    dof rx rz
    limits (-45.0 90.0)
           (-20.0 70.0)
  end
  begin
     id 10 
     name rtoes
     direction -1.53392e-011 -4.22077e-011 1   
     length 1.31983   
     axis -90 -7.62852e-016 -20   XYZ
    dof rx
    limits (-90.0 20.0)
  end
  begin
     id 11 
     name lowerback
     direction 0.0113257 0.999866 0.0118602   
     length 2.58694   
     axis 0 0 0   XYZ
    dof rx ry rz
    limits (-20.0 45.0)
           (-30.0 30.0)
           (-30.0 30.0)
  end
  begin
     id 12 
     name upperback
     direction -0.0164747 0.995193 -0.0965375   
     length 2.52368   
     axis 0 0 0   XYZ
    dof rx ry rz
    limits (-20.0 45.0)
           (-30.0 30.0)
           (-30.0 30.0)
  end
  begin
     id 13 
     name thorax
     direction -0.0194301 0.99433 -0.104552   
     length 2.56099   
     axis 0 0 0   XYZ
    dof rx ry rz
    limits (-20.0 45.0)
           (-30.0 30.0)
           (-30.0 30.0)
  end
  begin
     id 14 
     name lowerneck
     direction 0.0148543 0.995587 -0.092657   
     length 1.71582   
     axis 0 0 0   XYZ
    dof rx ry rz
    limits (-20.0 45.0)
           (-30.0 30.0)
           (-30.0 30.0)
  end
  begin
     id 15 
     name upperneck
     direction -0.0135467 0.993656 -0.111639   
     length 1.68937   
     axis 0 0 0   XYZ
    dof rx ry rz
    limits (-20.0 45.0)
           (-30.0 30.0)
           (-30.0 30.0)
  end
  begin
     id 16
     name head
     direction -0.00615349 0.999547 -0.029448  
     length 1.7462  
     axis 0 0 0   XYZ
    dof rx ry rz
    limits (-20.0 45.0)
           (-30.0 30.0)
           (-30.0 30.0)
  end
  begin
     id 17 
     name lclavicle
     direction 0.988267 0.149885 0.0293713  
     length 4.47222  
     axis 0 0 0   XYZ
    dof ry rz
    limits (-20.0 10.0)
           (0.0 20.0)
  end
  begin
     id 18 
     name lhumerus
     direction 1 -4.48986e-011 -1.14833e-027   
     length 5.37148   
     axis 180 -30 -90   XYZ
    dof rx ry rz
    limits (-60.0 90.0)
           (-90.0 90.0)
           (-90.0 90.0)
  end
  begin
     id 19
     name lradius
     direction 0.999998 0.00170963 -0.000987055   
     length 3.94212   
     axis 180 -30 -90   XYZ
    dof rx
    limits (-10.0 170.0)
  end
  begin
     id 20
     name lwrist
     direction 0.999998 7.53149e-005 -0.00194706   
     length 1.97106   
     axis 4.65056e-015 90 90   XYZ
    dof ry
    limits (-180.0 0.0)
 end
  begin
     id 21 
     name lhand
     direction 1 -4.48973e-011 -1.31746e-026   
     length 1.17917   
     axis 8.4065e-015 90 90   XYZ
    dof rx rz
    limits (-90.0 90.0)
           (-45.0 45.0)
  end
  begin
     id 22 
     name lfingers
     direction 1 -4.49107e-011 -2.63492e-026   
     length 0.950679   
     axis 1.6813e-014 90 90   XYZ
    dof rx
    limits (0.0 90.0)
  end
  begin
     id 23
     name lthumb
     direction 0.707107 -6.35048e-011 0.707107   
     length 1.36499   
     axis -90 45 2.85299e-015   XYZ
    dof rx rz
    limits (-45.0 45.0)
           (-45.0 45.0)
  end
  begin
     id 24 
     name rclavicle
     direction -0.996699 0.0642895 -0.0495725   
     length 4.62611  
     axis 0 0 0   XYZ 
    dof ry rz
    limits (-10.0 20.0)
           (-20.0 0.0)
  end
  begin
     id 25 
     name rhumerus
     direction -1 -4.48919e-011 -2.41059e-027  
     length 5.4981   
     axis 180 30 90   XYZ
    dof rx ry rz
    limits (-90.0 60.0)
           (-90.0 90.0)
           (-90.0 90.0)
  end
  begin
     id 26 
     name rradius
     direction -0.999999 0.00118101 -0.000681858   
     length 3.48381   
     axis 180 30 90   XYZ
    dof rx
    limits (-10.0 170.0)
  end
  begin
     id 27 
     name rwrist
     direction -0.999999 0.000321823 -0.00132288   
     length 1.7419   
     axis 4.65056e-015 -90 -90   XYZ
    dof ry
    limits (-180.0 0.0)
  end
  begin
     id 28
     name rhand
     direction -1 -4.49022e-011 -1.31746e-026   
     length 1.34932   
     axis 8.4065e-015 -90 -90   XYZ
    dof rx rz
    limits (-90.0 90.0)
           (-45.0 45.0)
  end
  begin
     id 29
     name rfingers
     direction -1 -4.49178e-011 -2.63492e-026   
     length 1.08785   
     axis 1.6813e-014 -90 -90   XYZ
    dof rx
    limits (0.0 90.0)
  end
  begin
     id 30
     name rthumb
     direction -0.707107 -6.34713e-011 0.707107   
     length 1.56195   
     axis -90 -45 -2.85299e-015   XYZ
    dof rx rz
    limits (-45.0 45.0)
           (-45.0 45.0)
  end
:hierarchy
  begin
    root lhipjoint rhipjoint lowerback
    lhipjoint lfemur
    lfemur ltibia
    ltibia lfoot
    lfoot ltoes
    rhipjoint rfemur
    rfemur rtibia
    rtibia rfoot
    rfoot rtoes
    lowerback upperback
    upperback thorax
    thorax lowerneck lclavicle rclavicle
    lowerneck upperneck
    upperneck head
    lclavicle lhumerus
    lhumerus lradius
    lradius lwrist
    lwrist lhand lthumb
    lhand lfingers
    rclavicle rhumerus
    rhumerus rradius
    rradius rwrist
    rwrist rhand rthumb
    rhand rfingers
  end

#!OML:ASF X:\für Bonn\!DataBase\2005_08_10_Bjorn_Final\c3d\bjorn.ASF
:FULLY-SPECIFIED
:DEGREES
16
root -35.6347 18.8932 3.4761 -166.441 -248.362 -172.507
lowerback -4.34947 -0.124561 -9.4088
upperback 7.65786 1.45776 -4.94066
thorax 10.6715 0.305609 0.133415
lowerneck -1.5238 -3.68049 -1.02611
upperneck 15.6699 -5.83758 8.42496
head 5.23068 -2.30145 2.50857
rclavicle -5.24792e-014 2.8625e-014
rhumerus -35.2285 -7.06342 -96.9964
rradius 35.1877
rwrist -5.26241
rhand -11.1782 13.3223
rfingers 7.12502
rthumb 14.8488 -16.1256
lclavicle -5.24792e-014 2.8625e-014
lhumerus -24.9899 -6.80501 88.8096
lradius 39.0499
lwrist -15.5929
lhand -27.4601 -8.51094
lfingers 7.12502
lthumb -0.864482 21.4671
rfemur -17.1428 -8.0061 15.0311
rtibia 45.8274
rfoot -21.6178 14.4009
rtoes -4.23914
lfemur -12.1013 14.0175 -23.5286
ltibia 33.3035
lfoot -20.5933 -11.6244
ltoes -5.5658
17
root -35.6052 18.8849 3.49138 -166.337 -248.012 -172.392
lowerback -4.26022 -0.251853 -9.61105
upperback 7.66532 1.29968 -4.97802
thorax 10.6408 0.216972 0.182372
lowerneck -1.43279 -3.59705 -0.933338
upperneck 15.5073 -5.72643 8.46753
head 5.15789 -2.24885 2.51384
rclavicle -9.54166e-015 1.74931e-014
rhumerus -35.6081 -7.26293 -97.0536
rradius 35.3287
rwrist -5.52247
rhand -11.1394 13.161
rfingers 7.12502
rthumb 14.8862 -16.2841
lclavicle -9.54166e-015 1.74931e-014
lhumerus -24.7517 -7.11359 88.8319
lradius 39.704
lwrist -15.3021
lhand -27.5678 -8.85602
lfingers 7.12502
lthumb -0.968469 21.1215
rfemur -17.5959 -8.08869 14.9038
rtibia 46.6124
rfoot -21.3252 14.6514
rtoes -3.89261
lfemur -11.9402 14.1493 -23.6123
ltibia 33.2741
lfoot -20.8591 -11.391
ltoes -6.19555
18
root -35.5733 18.8764 3.50678 -166.225 -247.646 -172.289
lowerback -4.20764 -0.387927 -9.82151
upperback 7.67194 1.13208 -4.9918
thorax 10.6325 0.12068 0.259965
lowerneck -1.34054 -3.50251 -0.859687
upperneck 15.322 -5.59575 8.4951
head 5.0771 -2.18991 2.51838
rclavicle -4.69132e-014 -1.90833e-014
rhumerus -35.9933 -7.42858 -97.064
rradius 35.4999
rwrist -5.77394
rhand -11.0697 13.0731
rfingers 7.12502
rthumb 14.9534 -16.3671
lclavicle -4.69132e-014 -1.90833e-014
lhumerus -24.4941 -7.52079 88.8847
lradius 40.3545
lwrist -14.9952
lhand -27.7649 -9.18709
lfingers 7.12502
lthumb -1.15888 20.7895
rfemur -18.0774 -8.17359 14.7829
rtibia 47.3862
rfoot -21.0476 14.8494
rtoes -3.93641
lfemur -11.7993 14.2002 -23.707
ltibia 33.2551
lfoot -21.0798 -11.1414
ltoes -6.63334
19
root -35.5415 18.8682 3.5237 -166.092 -247.292 -172.166
lowerback -4.15764 -0.518033 -10.0009
upperback 7.67894 0.975114 -5.04696
thorax 10.6275 0.0346761 0.277203
lowerneck -1.21216 -3.41741 -0.698867
upperneck 15.0823 -5.47763 8.52199
head 4.97223 -2.1351 2.50794
rclavicle -9.54166e-015 4.77083e-015
rhumerus -36.3654 -7.70159 -97.1011
rradius 35.6703
rwrist -5.97241
rhand -11.0521 12.9985
rfingers 7.12502
rthumb 14.9703 -16.4404
lclavicle -9.54166e-015 4.77083e-015
lhumerus -24.2319 -8.11831 88.864
lradius 41.0349
lwrist -14.6166
lhand -28.0337 -9.45493
lfingers 7.12502
lthumb -1.41843 20.5201
rfemur -18.5665 -8.23174 14.6708
rtibia 48.1493
rfoot -20.7926 14.9952
rtoes -3.88893
lfemur -11.6701 14.371 -23.7937
ltibia 33.2425
lfoot -21.2574 -10.9962
ltoes -6.91086
20
root -35.508 18.8585 3.5405 -165.994 -246.928 -172.054
lowerback -4.10166 -0.673522 -10.1944
upperback 7.69382 0.779739 -5.05871
thorax 10.631 -0.074244 0.343688
lowerneck -1.10082 -3.29334 -0.666464
upperneck 14.8723 -5.30246 8.55241
head 4.87976 -2.05821 2.52226
rclavicle -4.53229e-014 -3.18055e-015
rhumerus -36.7563 -7.7288 -97.1268
rradius 35.9104
rwrist -6.30575
rhand -11.0688 12.8787
rfingers 7.12502
rthumb 14.9542 -16.5614
lclavicle -4.53229e-014 -3.18055e-015
lhumerus -24.0077 -8.7038 88.867
lradius 41.8097
lwrist -14.1814
lhand -28.2797 -9.73003
lfingers 7.12502
lthumb -1.65608 20.2433
rfemur -19.0278 -8.32379 14.5482
rtibia 48.8863
rfoot -20.4878 15.2404
rtoes -3.75363
lfemur -11.5144 14.4391 -23.8878
ltibia 33.2478
lfoot -21.4973 -10.71
ltoes -7.53507
21
root -35.4732 18.8481 3.55794 -165.905 -246.524 -171.965
lowerback -4.0589 -0.851108 -10.3799
upperback 7.70385 0.551245 -5.04444
thorax 10.6406 -0.200585 0.429371
lowerneck -1.00101 -3.14133 -0.785043
upperneck 14.6566 -5.08592 8.60963
head 4.78926 -1.9681 2.57138
rclavicle 4.37326e-014 0
rhumerus -37.1384 -7.60844 -97.133
rradius 36.1505
rwrist -6.64137
rhand -11.115 12.6862
rfingers 7.12502
rthumb 14.9098 -16.7573
lclavicle 4.37326e-014 0
lhumerus -23.8432 -9.15225 88.8642
lradius 42.6972
lwrist -13.8194
lhand -28.4203 -10.1107
lfingers 7.12502
lthumb -1.79185 19.8616
rfemur -19.5049 -8.37273 14.4345
rtibia 49.6025
rfoot -20.2653 15.4251
rtoes -4.16799
lfemur -11.3717 14.6003 -23.9804
ltibia 33.2613
lfoot -21.6881 -10.5126
ltoes -7.86159
22
root -35.4383 18.8371 3.57664 -165.863 -246.125 -171.924
lowerback -4.0145 -1.01334 -10.5261
upperback 7.72051 0.34234 -5.04748
thorax 10.6558 -0.313518 0.477212
lowerneck -0.900581 -2.99598 -0.82755
upperneck 14.4275 -4.88208 8.67471
head 4.69373 -1.87972 2.60929
rclavicle 7.95139e-015 -9.54166e-015
rhumerus -37.4648 -7.44598 -97.1939
rradius 36.3879
rwrist -7.05464
rhand -11.2245 12.4574
rfingers 7.12502
rthumb 14.8042 -16.9938
lclavicle 7.95139e-015 -9.54166e-015
lhumerus -23.6913 -9.66254 88.7969
lradius 43.669
lwrist -13.415
lhand -28.4594 -10.583
lfingers 7.12502
lthumb -1.82956 19.3889
rfemur -19.9699 -8.41255 14.3475
rtibia 50.2907
rfoot -20.0137 15.6804
rtoes -4.11103
lfemur -11.2371 14.7289 -24.0493
ltibia 33.291
lfoot -21.902 -10.2949
ltoes -8.16011
23
root -35.4011 18.8277 3.59545 -165.898 -245.722 -171.94
lowerback -3.96946 -1.16862 -10.636
upperback 7.74988 0.137972 -5.02962
thorax 10.6845 -0.423526 0.527881
lowerneck -0.761723 -2.84981 -0.870339
upperneck 14.1351 -4.66883 8.71084
head 4.57115 -1.7916 2.63858
rclavicle 3.4191e-014 -5.88403e-014
rhumerus -37.815 -7.261 -97.2045
rradius 36.6588
rwrist -7.45219
rhand -11.3311 12.2773
rfingers 7.12502
rthumb 14.7015 -17.1815
lclavicle 3.4191e-014 -5.88403e-014
lhumerus -23.5584 -10.2473 88.7222
lradius 44.7092
lwrist -12.8662
lhand -28.4964 -11.1701
lfingers 7.12502
lthumb -1.86531 18.8015
rfemur -20.4056 -8.45069 14.2778
rtibia 50.9596
rfoot -19.7765 15.8905
rtoes -4.19993
lfemur -11.0619 14.836 -24.0877
ltibia 33.3188
lfoot -22.0709 -10.0872
ltoes -8.36965
24
root -35.3634 18.8167 3.61508 -165.885 -245.306 -171.916
lowerback -3.93055 -1.30778 -10.7276
upperback 7.77295 -0.0431104 -5.03884
thorax 10.708 -0.518845 0.542489
lowerneck -0.665371 -2.72318 -0.862532
upperneck 13.9024 -4.488 8.74026
head 4.47479 -1.71348 2.65507
rclavicle -6.20208e-014 0
rhumerus -38.1754 -7.1816 -97.202
rradius 36.9705
rwrist -7.81663
rhand -11.3766 12.0709
rfingers 7.12502
rthumb 14.6577 -17.391
lclavicle -6.20208e-014 0
lhumerus -23.4526 -10.84 88.6173
lradius 45.7972
lwrist -12.3416
lhand -28.5535 -11.7738
lfingers 7.12502
lthumb -1.92044 18.1973
rfemur -20.8502 -8.50095 14.1928
rtibia 51.6115
rfoot -19.5858 16.1053
rtoes -4.4942
lfemur -10.9075 15.0218 -24.1447
ltibia 33.3532
lfoot -22.2655 -9.95808
ltoes -8.62798
25
root -35.3247 18.8075 3.63534 -165.911 -244.886 -171.945
lowerback -3.89201 -1.434 -10.7811
upperback 7.77108 -0.21319 -5.05659
thorax 10.7009 -0.604134 0.529768
lowerneck -0.462416 -2.60328 -0.810334
upperneck 13.6049 -4.30961 8.76289
head 4.34006 -1.63916 2.66286
rclavicle 3.89618e-014 1.59028e-015
rhumerus -38.5488 -7.16917 -97.2006
rradius 37.2141
rwrist -8.19376
rhand -11.4559 11.9817
rfingers 7.12502
rthumb 14.5813 -17.4857
lclavicle 3.89618e-014 1.59028e-015
lhumerus -23.402 -11.5132 88.4721
lradius 46.963
lwrist -11.6919
lhand -28.5683 -12.3383
lfingers 7.12502
lthumb -1.9348 17.6327
rfemur -21.3138 -8.53863 14.1437
rtibia 52.2433
rfoot -19.4456 16.2875
rtoes -4.67607
lfemur -10.7522 15.1617 -24.1855
ltibia 33.3837
lfoot -22.4344 -9.80914
ltoes -8.84325
26
root -35.2849 18.7977 3.65637 -165.99 -244.457 -172.028
lowerback -3.86242 -1.54637 -10.7855
upperback 7.78436 -0.366584 -5.07112
thorax 10.7131 -0.67872 0.495262
lowerneck -0.331973 -2.47834 -0.821267
upperneck 13.33 -4.13161 8.84177
head 4.22682 -1.56283 2.69718
rclavicle 4.37326e-014 1.11319e-014
rhumerus -38.9174 -7.1943 -97.1701
rradius 37.4767
rwrist -8.54032
rhand -11.5145 11.9697
rfingers 7.12502
rthumb 14.5249 -17.5018
lclavicle 4.37326e-014 1.11319e-014
lhumerus -23.3482 -12.1746 88.3347
lradius 48.1843
lwrist -11.0077
lhand -28.5999 -12.8135
lfingers 7.12502
lthumb -1.96525 17.1572
rfemur -21.765 -8.56793 14.1183
rtibia 52.8539
rfoot -19.3675 16.3808
rtoes -5.23894
lfemur -10.5847 15.2735 -24.1978
ltibia 33.4114
lfoot -22.5399 -9.71858
ltoes -8.64636
